<?xml version="1.0" encoding="UTF-8" standalone="no"?>
<!-- Created with Inkscape (http://www.inkscape.org/) -->

<svg
   width="55"
   height="55"
   viewBox="0 0 14.552083 14.552084"
   version="1.1"
   id="svg1"
   inkscape:version="1.4.2 (ebf0e940d0, 2025-05-08)"
   sodipodi:docname="pin-smoking-isolated.svg"
   xml:space="preserve"
   inkscape:export-filename="wwwroot/pin-smoking-isolated.png"
   inkscape:export-xdpi="58.200184"
   inkscape:export-ydpi="58.200184"
   xmlns:inkscape="http://www.inkscape.org/namespaces/inkscape"
   xmlns:sodipodi="http://sodipodi.sourceforge.net/DTD/sodipodi-0.dtd"
   xmlns="http://www.w3.org/2000/svg"
   xmlns:svg="http://www.w3.org/2000/svg"><sodipodi:namedview
     id="namedview1"
     pagecolor="#ffffff"
     bordercolor="#000000"
     borderopacity="0.25"
     inkscape:showpageshadow="2"
     inkscape:pageopacity="0.0"
     inkscape:pagecheckerboard="0"
     inkscape:deskcolor="#d1d1d1"
     inkscape:document-units="mm"
     inkscape:zoom="6.0079124"
     inkscape:cx="49.101914"
     inkscape:cy="27.380559"
     inkscape:window-width="1920"
     inkscape:window-height="1052"
     inkscape:window-x="0"
     inkscape:window-y="0"
     inkscape:window-maximized="1"
     inkscape:current-layer="layer1" /><defs
     id="defs1" /><g
     inkscape:label="Layer 1"
     inkscape:groupmode="layer"
     id="layer1"><ellipse
       style="fill:#ff80ef;fill-opacity:1;stroke:#000000;stroke-width:0.3;stroke-dasharray:none;stroke-opacity:1"
       id="path1"
       cx="7.2760415"
       cy="7.2760415"
       rx="6.6149998"
       ry="6.614583" /><circle
       style="fill:#ffffff;fill-opacity:1;stroke:#000000;stroke-width:0.3;stroke-dasharray:none;stroke-opacity:1"
       id="path1-3"
       cx="7.2760415"
       cy="7.276042"
       r="5.3050451" /><g
       style="fill:#1f1f1f"
       id="g1"
       transform="matrix(0.00661458,0,0,0.00661458,4.1010431,10.45104)"><path
         d="m 120,-120 v -80 h 80 v -560 q 0,-33 23.5,-56.5 Q 247,-840 280,-840 h 400 q 33,0 56.5,23.5 23.5,23.5 23.5,56.5 v 560 h 80 v 80 z m 560,-80 V -760 H 280 v 560 z M 560,-440 q 17,0 28.5,-11.5 Q 600,-463 600,-480 600,-497 588.5,-508.5 577,-520 560,-520 q -17,0 -28.5,11.5 -11.5,11.5 -11.5,28.5 0,17 11.5,28.5 Q 543,-440 560,-440 Z M 280,-760 v 560 z"
         id="path1-0" /></g></g></svg>
