<?xml version="1.0" encoding="UTF-8" standalone="no"?>
<!-- Created with Inkscape (http://www.inkscape.org/) -->

<svg
   width="55"
   height="55"
   viewBox="0 0 14.552083 14.552084"
   version="1.1"
   id="svg1"
   xml:space="preserve"
   xmlns="http://www.w3.org/2000/svg"
   xmlns:svg="http://www.w3.org/2000/svg"><defs
     id="defs1" /><g
     id="layer1"><circle
       style="fill:#808fff;fill-opacity:1;stroke:#000000;stroke-width:0.3;stroke-opacity:1;stroke-dasharray:none"
       id="path1"
       cx="7.2760415"
       cy="7.2760415"
       r="6.614583" /><circle
       style="fill:#ffffff;fill-opacity:1;stroke:#000000;stroke-width:0.3;stroke-dasharray:none;stroke-opacity:1"
       id="path1-3"
       cx="7.2760415"
       cy="7.276042"
       r="5.3050451" /><g
       style="fill:#1f1f1f"
       id="g2"
       transform="matrix(0.00661458,0,0,0.00661458,4.1804181,10.371665)"><path
         d="M 792,-56 528,-320 H 80 v -120 h 328 l -352,-352 56,-56 736,736 z m -38,-264 -34,-34 v -86 h 60 v 120 z m 66,0 v -120 h 60 v 120 z m -140,-74 -46,-46 h 46 z m 40,-86 v -52 q 0,-39 -23,-59.5 -23,-20.5 -55,-20.5 h -62 q -56,0 -95,-39 -39,-39 -39,-95 0,-56 39,-95 39,-39 95,-39 v 60 q -30,0 -52,21 -22,21 -22,53 0,32 22,53 22,21 52,21 h 62 q 56,0 97,36 41,36 41,90 v 66 z m 100,0 v -90 q 0,-66 -46,-114 -46,-48 -114,-48 v -60 q 30,0 52,-22 22,-22 22,-52 h 60 q 0,29 -11,52.5 -11,23.5 -29,43.5 56,26 91,80 35,54 35,120 v 90 z"
         id="path1-9" /></g></g></svg>
